HIERARCHY
ROOT Hips
{
  OFFSET 0.0000 0.0000 0.0000
  CHANNELS 6 Xposition Yposition Zposition Zrotation Xrotation Yrotation
  JOINT Chest
  {
    OFFSET 0.0000 5.0000 0.0000
    CHANNELS 3 Zrotation Xrotation Yrotation
    JOINT Chest2
    {
      OFFSET 0.0000 5.0000 0.0000
      CHANNELS 3 Zrotation Xrotation Yrotation
      JOINT Neck
      {
        OFFSET 0.0000 5.0000 0.0000
        CHANNELS 3 Zrotation Xrotation Yrotation
        JOINT Head
        {
          OFFSET 0.0000 5.0000 0.0000
          CHANNELS 3 Zrotation Xrotation Yrotation
        }
      }
    }
    JOINT LeftShoulder
    {
      OFFSET 2.0000 4.5000 0.0000
      CHANNELS 3 Zrotation Xrotation Yrotation
      JOINT LeftArm
      {
        OFFSET 3.0000 0.0000 0.0000
        CHANNELS 3 Zrotation Xrotation Yrotation
        JOINT LeftForeArm
        {
          OFFSET 0.0000 0.0000 -4.0000
          CHANNELS 3 Zrotation Xrotation Yrotation
        }
      }
    }
    JOINT RightShoulder
    {
      OFFSET -2.0000 4.5000 0.0000
      CHANNELS 3 Zrotation Xrotation Yrotation
      JOINT RightArm
      {
        OFFSET -3.0000 0.0000 0.0000
        CHANNELS 3 Zrotation Xrotation Yrotation
        JOINT RightForeArm
        {
          OFFSET 0.0000 0.0000 -4.0000
          CHANNELS 3 Zrotation Xrotation Yrotation
        }
      }
    }
  }
  JOINT LeftUpLeg
  {
    OFFSET 1.0000 0.0000 0.0000
    CHANNELS 3 Zrotation Xrotation Yrotation
    JOINT LeftLeg
    {
      OFFSET 0.0000 0.0000 -4.0000
      CHANNELS 3 Zrotation Xrotation Yrotation
    }
  }
  JOINT RightUpLeg
  {
    OFFSET -1.0000 0.0000 0.0000
    CHANNELS 3 Zrotation Xrotation Yrotation
    JOINT RightLeg
    {
      OFFSET 0.0000 0.0000 -4.0000
      CHANNELS 3 Zrotation Xrotation Yrotation
    }
  }
}
MOTION
Frames: 18
Frame Time: 0.03333333333333333
0.000000 5.000000 0.000000 0.000000 0.000000 0.000000 0.000000 -1.500000 0.000000 0.000000 -1.500000 0.000000 0.000000 0.000000 0.000000 0.000000 -3.000000 5.000000 0.000000 0.000000 0.000000 0.000000 0.000000 0.000000 0.000000 0.000000 0.000000 0.000000 -5.000000 0.000000 0.000000 0.000000 0.000000 0.000000 0.000000 0.000000 0.000000 0.000000 0.000000 0.000000 0.000000 0.000000 0.000000 0.000000 0.000000 0.000000 0.000000 0.000000
0.000000 5.000000 0.000000 0.209057 0.000000 0.000000 0.104528 -1.500000 0.000000 0.104528 -1.500000 0.000000 0.000000 0.000000 0.000000 0.000000 -3.000000 5.000000 0.000000 0.000000 0.000000 0.000000 0.000000 0.000000 0.000000 0.000000 0.000000 0.000000 -5.000000 0.000000 1.425332 1.900443 7.601771 0.000000 -2.850664 -5.701328 0.104528 0.000000 0.000000 0.000000 0.000000 0.000000 -0.104528 0.000000 0.000000 0.000000 0.000000 0.000000
0.000000 5.000000 0.000000 0.415823 0.000000 0.000000 0.207912 -1.500000 0.000000 0.207912 -1.500000 0.000000 0.000000 0.000000 0.000000 0.000000 -3.000000 5.000000 0.000000 0.000000 0.000000 0.000000 0.000000 0.000000 0.000000 0.000000 0.000000 0.000000 -5.000000 0.000000 4.872044 6.496059 25.984235 0.000000 -9.744088 -19.488176 0.207912 0.000000 0.000000 0.000000 0.000000 0.000000 -0.207912 0.000000 0.000000 0.000000 0.000000 0.000000
0.000000 5.000000 0.000000 0.618034 0.000000 0.000000 0.309017 -1.500000 0.000000 0.309017 -1.500000 0.000000 0.000000 0.000000 0.000000 0.000000 -3.000000 5.000000 0.000000 0.000000 0.000000 0.000000 0.000000 0.000000 0.000000 0.000000 0.000000 0.000000 -5.000000 0.000000 9.096210 12.128280 48.513120 0.000000 -18.192420 -36.384840 0.309017 0.000000 0.000000 0.000000 0.000000 0.000000 -0.309017 0.000000 0.000000 0.000000 0.000000 0.000000
0.000000 5.000000 0.000000 0.813473 0.000000 0.000000 0.406737 -1.500000 0.000000 0.406737 -1.500000 0.000000 0.000000 0.000000 0.000000 0.000000 -3.000000 5.000000 0.000000 0.000000 0.000000 0.000000 0.000000 0.000000 0.000000 0.000000 0.000000 0.000000 -5.000000 0.000000 12.853903 17.138538 68.554152 0.000000 -25.707807 -51.415614 0.406737 0.000000 0.000000 0.000000 0.000000 0.000000 -0.406737 0.000000 0.000000 0.000000 0.000000 0.000000
0.000000 5.000000 0.000000 1.000000 0.000000 0.000000 0.500000 -1.500000 0.000000 0.500000 -1.500000 0.000000 0.000000 0.000000 0.000000 0.000000 -3.000000 5.000000 0.000000 0.000000 0.000000 0.000000 0.000000 0.000000 0.000000 0.000000 0.000000 0.000000 -5.000000 0.000000 14.901199 19.868265 79.473059 0.000000 -29.802397 -59.604794 0.500000 0.000000 0.000000 0.000000 0.000000 0.000000 -0.500000 0.000000 0.000000 0.000000 0.000000 0.000000
0.000000 5.000000 0.000000 1.175571 0.000000 0.000000 0.587785 -1.500000 0.000000 0.587785 -1.500000 0.000000 0.000000 0.000000 0.000000 0.000000 -3.000000 5.000000 0.000000 0.000000 0.000000 0.000000 0.000000 0.000000 0.000000 0.000000 0.000000 0.000000 -5.000000 0.000000 15.000000 20.000000 80.000000 0.000000 -30.000000 -60.000000 0.587785 0.000000 0.000000 0.000000 0.000000 0.000000 -0.587785 0.000000 0.000000 0.000000 0.000000 0.000000
0.000000 5.000000 0.000000 1.338261 0.000000 0.000000 0.669131 -1.500000 0.000000 0.669131 -1.500000 0.000000 0.000000 0.000000 0.000000 0.000000 -3.000000 5.000000 0.000000 0.000000 0.000000 0.000000 0.000000 0.000000 0.000000 0.000000 0.000000 0.000000 -5.000000 0.000000 15.000000 20.000000 80.000000 0.000000 -30.000000 -60.000000 0.669131 0.000000 0.000000 0.000000 0.000000 0.000000 -0.669131 0.000000 0.000000 0.000000 0.000000 0.000000
0.000000 5.000000 0.000000 1.486290 0.000000 0.000000 0.743145 -1.500000 0.000000 0.743145 -1.500000 0.000000 0.000000 0.000000 0.000000 0.000000 -3.000000 5.000000 0.000000 0.000000 0.000000 0.000000 0.000000 0.000000 0.000000 0.000000 0.000000 0.000000 -5.000000 0.000000 15.000000 20.000000 80.000000 0.000000 -30.000000 -60.000000 0.743145 0.000000 0.000000 0.000000 0.000000 0.000000 -0.743145 0.000000 0.000000 0.000000 0.000000 0.000000
0.000000 5.000000 0.000000 1.618034 0.000000 0.000000 0.809017 -1.500000 0.000000 0.809017 -1.500000 0.000000 0.000000 0.000000 0.000000 0.000000 -3.000000 5.000000 0.000000 0.000000 0.000000 0.000000 0.000000 0.000000 0.000000 0.000000 0.000000 0.000000 -5.000000 0.000000 15.000000 20.000000 80.000000 0.000000 -30.000000 -60.000000 0.809017 0.000000 0.000000 0.000000 0.000000 0.000000 -0.809017 0.000000 0.000000 0.000000 0.000000 0.000000
0.000000 5.000000 0.000000 1.732051 0.000000 0.000000 0.866025 -1.500000 0.000000 0.866025 -1.500000 0.000000 0.000000 0.000000 0.000000 0.000000 -3.000000 5.000000 0.000000 0.000000 0.000000 0.000000 0.000000 0.000000 0.000000 0.000000 0.000000 0.000000 -5.000000 0.000000 15.000000 20.000000 80.000000 0.000000 -30.000000 -60.000000 0.866025 0.000000 0.000000 0.000000 0.000000 0.000000 -0.866025 0.000000 0.000000 0.000000 0.000000 0.000000
0.000000 5.000000 0.000000 1.827091 0.000000 0.000000 0.913545 -1.500000 0.000000 0.913545 -1.500000 0.000000 0.000000 0.000000 0.000000 0.000000 -3.000000 5.000000 0.000000 0.000000 0.000000 0.000000 0.000000 0.000000 0.000000 0.000000 0.000000 0.000000 -5.000000 0.000000 15.000000 20.000000 80.000000 0.000000 -30.000000 -60.000000 0.913545 0.000000 0.000000 0.000000 0.000000 0.000000 -0.913545 0.000000 0.000000 0.000000 0.000000 0.000000
0.000000 5.000000 0.000000 1.902113 0.000000 0.000000 0.951057 -1.500000 0.000000 0.951057 -1.500000 0.000000 0.000000 0.000000 0.000000 0.000000 -3.000000 5.000000 0.000000 0.000000 0.000000 0.000000 0.000000 0.000000 0.000000 0.000000 0.000000 0.000000 -5.000000 0.000000 15.000000 20.000000 80.000000 0.000000 -30.000000 -60.000000 0.951057 0.000000 0.000000 0.000000 0.000000 0.000000 -0.951057 0.000000 0.000000 0.000000 0.000000 0.000000
0.000000 5.000000 0.000000 1.956295 0.000000 0.000000 0.978148 -1.500000 0.000000 0.978148 -1.500000 0.000000 0.000000 0.000000 0.000000 0.000000 -3.000000 5.000000 0.000000 0.000000 0.000000 0.000000 0.000000 0.000000 0.000000 0.000000 0.000000 0.000000 -5.000000 0.000000 15.000000 20.000000 80.000000 0.000000 -30.000000 -60.000000 0.978148 0.000000 0.000000 0.000000 0.000000 0.000000 -0.978148 0.000000 0.000000 0.000000 0.000000 0.000000
0.000000 5.000000 0.000000 1.989044 0.000000 0.000000 0.994522 -1.500000 0.000000 0.994522 -1.500000 0.000000 0.000000 0.000000 0.000000 0.000000 -3.000000 5.000000 0.000000 0.000000 0.000000 0.000000 0.000000 0.000000 0.000000 0.000000 0.000000 0.000000 -5.000000 0.000000 14.617752 19.490336 77.961343 0.000000 -29.235504 -58.471007 0.994522 0.000000 0.000000 0.000000 0.000000 0.000000 -0.994522 0.000000 0.000000 0.000000 0.000000 0.000000
0.000000 5.000000 0.000000 2.000000 0.000000 0.000000 1.000000 -1.500000 0.000000 1.000000 -1.500000 0.000000 0.000000 0.000000 0.000000 0.000000 -3.000000 5.000000 0.000000 0.000000 0.000000 0.000000 0.000000 0.000000 0.000000 0.000000 0.000000 0.000000 -5.000000 0.000000 12.026239 16.034985 64.139942 0.000000 -24.052478 -48.104956 1.000000 0.000000 0.000000 0.000000 0.000000 0.000000 -1.000000 0.000000 0.000000 0.000000 0.000000 0.000000
0.000000 5.000000 0.000000 1.989044 0.000000 0.000000 0.994522 -1.500000 0.000000 0.994522 -1.500000 0.000000 0.000000 0.000000 0.000000 0.000000 -3.000000 5.000000 0.000000 0.000000 0.000000 0.000000 0.000000 0.000000 0.000000 0.000000 0.000000 0.000000 -5.000000 0.000000 8.035309 10.713746 42.854983 0.000000 -16.070619 -32.141237 0.994522 0.000000 0.000000 0.000000 0.000000 0.000000 -0.994522 0.000000 0.000000 0.000000 0.000000 0.000000
0.000000 5.000000 0.000000 1.956295 0.000000 0.000000 0.978148 -1.500000 0.000000 0.978148 -1.500000 0.000000 0.000000 0.000000 0.000000 0.000000 -3.000000 5.000000 0.000000 0.000000 0.000000 0.000000 0.000000 0.000000 0.000000 0.000000 0.000000 0.000000 -5.000000 0.000000 3.888889 5.185185 20.740741 0.000000 -7.777778 -15.555556 0.978148 0.000000 0.000000 0.000000 0.000000 0.000000 -0.978148 0.000000 0.000000 0.000000 0.000000 0.000000
